<?xml version="1.0" encoding="UTF-8"?>
<svg xmlns="http://www.w3.org/2000/svg" width="720" height="1080" viewBox="0 0 720 1080" role="img" aria-label="Mirror Wake">
  <defs>
    <linearGradient id="bg" x1="0" y1="0" x2="0.35" y2="1">
      <stop offset="0%" stop-color="#23c4e0"/>
      <stop offset="52%" stop-color="#0e6b8c"/>
      <stop offset="100%" stop-color="#10222b"/>
    </linearGradient>
    <radialGradient id="glow" cx="0.5" cy="0.32" r="0.6">
      <stop offset="0%" stop-color="#8fe6f5" stop-opacity="0.45"/>
      <stop offset="100%" stop-color="#8fe6f5" stop-opacity="0"/>
    </radialGradient>
    <linearGradient id="fade" x1="0" y1="0" x2="0" y2="1">
      <stop offset="0%" stop-color="#000000" stop-opacity="0"/>
      <stop offset="100%" stop-color="#000000" stop-opacity="0.55"/>
    </linearGradient>
  </defs>

  <rect width="720" height="1080" rx="40" fill="url(#bg)"/>
  <rect width="720" height="1080" rx="40" fill="url(#glow)"/>

  <!-- Watermark icon -->
  <g opacity="0.09" transform="translate(360,352) scale(2.35) translate(-360,-430)">
    <path d="M282 356 h156 a30 30 0 0 1 30 30 v78 a30 30 0 0 1 -30 30 h-58 l-30 34 l-6 -34 h-32 a30 30 0 0 1 -30 -30 v-78 a30 30 0 0 1 30 -30 Z" fill="none" stroke="#ffffff" stroke-width="10" stroke-linejoin="round"/>
    <g stroke="#ffffff" stroke-width="9" stroke-linecap="round">
      <line x1="306" y1="398" x2="414" y2="398"/><line x1="306" y1="426" x2="414" y2="426"/><line x1="306" y1="454" x2="372" y2="454"/>
    </g>
  </g>

  <!-- Category kicker -->
  <text x="56" y="118" font-family="'Segoe UI',Arial,sans-serif" font-size="26" font-weight="700" letter-spacing="6" fill="#ffffff" fill-opacity="0.72">MANGA</text>
  <text x="664" y="118" text-anchor="end" font-family="'Segoe UI',Arial,sans-serif" font-size="30" font-weight="800" fill="#ffffff" fill-opacity="0.85">#7</text>

  <!-- Bottom fade -->
  <rect x="0" y="640" width="720" height="440" fill="url(#fade)"/>

  <!-- Media-type pill -->
  <rect x="56" y="740" width="105" height="40" rx="20" fill="#ffffff" fill-opacity="0.16"/>
  <text x="108.5" y="767" text-anchor="middle" font-family="'Segoe UI',Arial,sans-serif" font-size="20" font-weight="700" letter-spacing="1" fill="#ffffff">Manga</text>

  <!-- Title -->
  <rect x="56" y="798" width="8" height="66" rx="4" fill="#a9edf7"/>
  <text x="80" y="856" font-family="'Segoe UI',Arial,sans-serif" font-size="66" font-weight="800" fill="#ffffff">Mirror Wake</text>

  <!-- Footer -->
  <text x="56" y="968" font-family="'Segoe UI',Arial,sans-serif" font-size="22" font-weight="600" fill="#ffffff" fill-opacity="0.85">2026-06-03</text>
  <text x="56" y="1004" font-family="'Segoe UI',Arial,sans-serif" font-size="18" fill="#ffffff" fill-opacity="0.55">#950101</text>
  <text x="664" y="1004" text-anchor="end" font-family="'Segoe UI',Arial,sans-serif" font-size="18" font-weight="700" letter-spacing="2" fill="#ffffff" fill-opacity="0.6">MYSHELF</text>
</svg>
